<svg width="241" height="134" xmlns="http://www.w3.org/2000/svg" xmlns:xlink="http://www.w3.org/1999/xlink"><defs><linearGradient x1="99.899%" y1="0%" x2="99.899%" y2="97.637%" id="a"><stop stop-color="#FFEDD9" offset="0%"/><stop stop-color="#DBAD77" offset="100%"/></linearGradient><linearGradient x1="100%" y1="0%" x2="100%" y2="100%" id="d"><stop stop-color="#EB5223" offset="0%"/><stop stop-color="#EB5223" offset="100%"/></linearGradient><linearGradient x1="100%" y1="0%" x2="100%" y2="100%" id="e"><stop stop-color="#FF7438" offset="0%"/><stop stop-color="#FF8C38" offset="100%"/></linearGradient><linearGradient x1="22.733%" y1="-10.594%" x2="-19.563%" y2="80.314%" id="g"><stop stop-color="#298992" offset="20.97%"/><stop stop-color="#308F99" offset="35.58%"/><stop stop-color="#44A1AC" offset="57.09%"/><stop stop-color="#64BFCB" offset="82.72%"/><stop stop-color="#7ED6E4" offset="100%"/></linearGradient><linearGradient x1="22.973%" y1="-7.057%" x2="-19.334%" y2="79.023%" id="h"><stop stop-color="#298992" offset="20.97%"/><stop stop-color="#308F99" offset="35.58%"/><stop stop-color="#44A1AC" offset="57.09%"/><stop stop-color="#64BFCB" offset="82.72%"/><stop stop-color="#7ED6E4" offset="100%"/></linearGradient><linearGradient x1="9.652%" y1="-.315%" x2="109.986%" y2="6.466%" id="i"><stop stop-color="#298992" offset="20.97%"/><stop stop-color="#308F99" offset="35.58%"/><stop stop-color="#44A1AC" offset="57.09%"/><stop stop-color="#64BFCB" offset="82.72%"/><stop stop-color="#7ED6E4" offset="100%"/></linearGradient><linearGradient x1="1.7%" y1="1.048%" x2="101.158%" y2="1.966%" id="j"><stop stop-color="#298992" offset="20.97%"/><stop stop-color="#308F99" offset="35.58%"/><stop stop-color="#44A1AC" offset="57.09%"/><stop stop-color="#64BFCB" offset="82.72%"/><stop stop-color="#7ED6E4" offset="100%"/></linearGradient><linearGradient x1="-1.358%" y1="4.658%" x2="94.996%" y2="-1.382%" id="k"><stop stop-color="#298992" offset="20.97%"/><stop stop-color="#308F99" offset="35.58%"/><stop stop-color="#44A1AC" offset="57.09%"/><stop stop-color="#64BFCB" offset="82.72%"/><stop stop-color="#7ED6E4" offset="100%"/></linearGradient><linearGradient x1="-1.358%" y1="4.657%" x2="94.997%" y2="-1.382%" id="l"><stop stop-color="#298992" offset="20.97%"/><stop stop-color="#308F99" offset="35.58%"/><stop stop-color="#44A1AC" offset="57.09%"/><stop stop-color="#64BFCB" offset="82.72%"/><stop stop-color="#7ED6E4" offset="100%"/></linearGradient><linearGradient x1="100%" y1="0%" x2="100%" y2="110.363%" id="m"><stop stop-color="#FFEDD9" offset="0%"/><stop stop-color="#DBAD77" offset="100%"/></linearGradient><radialGradient cx="46.579%" cy="56.964%" fx="46.579%" fy="56.964%" r=".816%" gradientTransform="matrix(.63021 0 0 1 .172 0)" id="f"><stop stop-color="#FF7438" offset="56.99%"/><stop stop-color="#B4370A" offset="100%"/></radialGradient><path id="b" d="M0 0h216v142H0z"/></defs><g fill="none" fill-rule="evenodd"><path d="m74.96 54.885-56.265-20.68 27.676 25.772-24.844.935 15.71 9.041L0 96.552l37.565-4.902 75.08-7.083a50 50 0 0 1 7.65-.134l122.515 7.249-37.238-15.701 30.14-19.537-36.611-1.16 7.989-27.206-40.216 16.891-4.134-15.514-16.302-.517L113.165 0l5.997 18.026-6.572 9.84-1.37 33.462-21.556-27.435 1.005 23.902-11.6-11.431-4.11 8.521Z" transform="scale(-1 1) rotate(-7.144 175.86 2041.762)" fill="url(#a)" fill-rule="nonzero"/><g transform="rotate(2 684.4 717.835)"><mask id="c" fill="#fff"><use xlink:href="#b"/></mask><g fill-rule="nonzero" mask="url(#c)"><path d="M183.76 55.725c-.1 23.618-12.184 60.653-41.223 86.994-29.073 26.177-67.138 34.544-90.769 32.238L183.76 55.725Z" fill="#FA7C34"/><path d="m146.456 89.397 37.135-33.654c-.1 23.618-12.183 60.653-41.223 86.994-1.31 1.126-2.458 2.217-3.77 3.343 23.408-26.205 33.1-54.88 7.858-56.683Z" fill="#D93F0F"/><path d="M183.26 66.6c.406-3.845.32-7.59.335-10.842L51.768 174.957c5.405.423 11.598.514 18.15-.154C121.25 159.252 171.681 93.613 183.258 66.6Z" opacity=".8" fill="#A32600"/><path d="M4.248 123.73c8.735 14.737 61.648 4.857 115.4-26.628 53.753-31.652 88.02-73.017 79.285-87.755-1.343-2.344-4.535-7.703-7.894-8.54-17.974-4.857-60.304 12.727-105.322 39.188C39.523 67.125 3.073 95.26.049 113.013c-.504 2.847 3.024 8.708 4.2 10.718Z" transform="rotate(-11.659 275.08 65.794)" fill="url(#d)"/><path d="M.665 115.996c7.055 12.393 58.12.838 110.864-30.145 52.746-30.982 89.365-71.175 80.294-82.06-8.231-9.882-57.952-.67-110.697 30.311-52.744 31.15-86.34 71.678-80.46 81.894Z" transform="rotate(-11.659 265.366 66.512)" fill="url(#e)"/><path d="M16.462 168.434c-8.818-10.322 24.57-60.474 29.253-59.388.793.52 3.483 4.411 3.483 4.411-7.016.08-32.253 34.87-32.736 54.977Z" opacity=".4" fill="#EB5223"/><path d="m132.62 100.48.653-.99c-6.449-4.655-16.85-9.348-23.251-11.276l-.29 1.085c6.236 1.963 16.439 6.526 22.888 11.18Z" fill="#2CB0B5"/><path d="m132.46 101.36.653-.99c-6.448-4.655-17.049-9.478-23.648-11.537l-.29 1.086c6.599 2.059 17 6.752 23.285 11.44Z" fill="#FFCC9E"/><path d="m164.305 64.513.455-1.12c-7.363-3.269-33.318 3.113-38.514 4.527l.237 1.148c3.29-.679 30.657-7.694 37.822-4.555Z" opacity=".5" fill="#2CB0B5"/><path d="m164.111 65.237.455-1.12c-6.604-2.912-29.664 2.53-37.198 4.256l-1.152.237.237 1.148 1.152-.237c19.969-4.634 32.346-6.161 36.506-4.284Z" fill="#FFCC9E"/><g opacity=".5"><path d="m182.623 29.435.29-1.086c-14.848-4.631-45.12 13.243-48.071 15.562l.696.882c5.052-3.778 33.49-19.735 47.085-15.358Z" fill="#2CB0B5"/><path d="m182.43 30.157.29-1.086c-14.878-3.941-43.413 12.378-48.072 15.562l.696.882c4.496-3.15 32.57-19.203 47.085-15.358Z" fill="#74F0C8"/></g><g opacity=".3"><path d="M63.132 156.05c-2.278-6.883 3.193-30.241 5.962-35.943l-.958-.486c-2.9 5.9-8.501 29.456-5.957 36.797l.953-.368Z" opacity=".5" fill="#2CB0B5"/><path d="M63.848 154.535c-.772-8.733 2.792-31.356 5.507-34.824l-.827-.684c-2.812 3.83-6.541 26.487-5.667 35.711l.987-.203Z" fill="#74F0C8"/></g><g opacity=".1"><path d="M28.528 170.388c-3.177-14.563 14.628-41.322 17.837-44.891l-.862-.848c-3.372 3.603-21.37 31.085-18.127 45.977l1.152-.238Z" opacity=".5" fill="#2CB0B5"/><path d="M29.186 170.258c-2.354-14.733 14.105-40.53 17.836-44.891l-.827-.684c-3.697 4.525-20.583 30.751-17.996 45.779l.987-.204Z" fill="#74F0C8"/></g><g opacity=".5"><path d="M101.758 130.451c-4.053-6.345-8.135-17.815-9.692-25.36l-1.152.238c1.557 7.544 5.673 19.178 9.925 25.654l.92-.532Z" fill="#2CB0B5"/><path d="M100.108 129.943c-3.99-6.872-7.54-17.425-8.86-23.822l-1.151.238c1.353 6.56 4.937 17.278 8.927 24.15l1.084-.566Z" fill="#74F0C8"/></g><path d="M42.543 126.09c6.864 8.33 32.46-3.107 57.305-25.675 25.008-22.602 39.687-48.716 32.208-55.038-6.652-5.639-30.231 7.263-55.24 29.866-24.878 22.404-39.512 44.575-34.273 50.847Z" opacity=".4" fill="#660C00"/><path d="M42.857 123.461c6.497 7.38 33.347-3.803 58.355-26.405 25.009-22.602 39.654-48.88 32.175-55.202-7.015-5.735-30.595 7.167-55.472 29.572-25.009 22.602-40.626 45.831-35.058 52.035Z" fill="#EB5223"/><path d="M.394 58.232c4.032 7.2 29.732 1.172 56.104-14.403 26.54-15.407 45.018-35.504 39.81-41.868C91.774-3.9 68.594 3.803 42.053 19.378 15.512 34.953-2.965 52.37.394 58.232Z" transform="rotate(-11.659 317.239 -131.31)" fill="url(#f)"/><path d="M49.496 120.72c-2.075-.085-3.594-.798-4.688-1.94-5.37-6.074 12.556-28.924 32.943-47.324 23.697-21.477 44.485-32.948 50.474-28.028 1.06.979 1.693 2.387 1.736 4.26.216 9.36-13.707 29.161-32.192 45.971-18.128 16.053-38.388 27.586-48.273 27.06Zm-3.671-2.834c.696.883 2.017 1.465 3.73 1.454 8.336.502 27.193-8.69 47.45-26.89 20.091-18.168 31.944-37.201 31.703-45.017.024-1.544-.541-2.625-1.369-3.309-5.162-4.236-26.177 7.795-48.727 28.18-24.287 21.94-36.566 41.403-32.787 45.582Z" fill="#F0BDAA"/><path d="M45.234 118.347c5.404 6.238 29.356-4.86 52.037-25.443 22.879-20.453 36.914-43.869 30.529-49.05-5.627-4.823-38.374-29.701-73.148 2.098-34.445 31.73-13.892 67.333-9.418 72.395Z" fill="#C7C7C7" fill-opacity=".8"/><path d="M61.35 113.331C43.307 96.535 40.093 75.14 45.873 59.924c-17.22 25.441-.938 51.152 2.284 55.959 1.693 2.386 13.959-1.341 13.195-2.552Z" opacity=".7" fill="#EDEDED"/><path d="M16.127 168.47s.198.13.43.425c.397.26.828.684 1.621 1.204 1.553.876 4.224 1.351 7.417 1.034 6.585-.504 15.595-3.388 25.713-8.383 4.993-2.398 10.38-5.39 15.895-8.58 5.483-3.355 11.26-6.941 16.936-11.02 11.387-7.992 22.995-17.398 34.14-27.392 10.98-9.96 21.462-20.674 30.627-31.115 9.165-10.44 16.948-20.939 23.055-30.407 5.943-9.434 9.815-18.099 11.065-24.513.542-3.19.33-5.882-.503-7.42-.334-.786-.963-1.34-1.195-1.634l-.594-.39s.198.13.43.423c.232.295.696.883 1.03 1.669.668 1.572.88 4.264.14 7.324-.74 3.06-2.203 6.782-4.124 10.769-2.086 4.021-4.632 8.309-7.802 12.896-6.141 9.304-14.353 19.377-23.553 29.655a387.02 387.02 0 0 1-30.73 30.622c-10.979 9.96-22.423 19.333-33.61 27.455a398.129 398.129 0 0 1-16.54 11.279c-5.318 3.32-10.506 6.442-15.465 9.004-9.755 5.092-18.465 8.598-24.852 9.233-3.193.317-5.83.005-7.35-.708a13.678 13.678 0 0 1-1.75-1.005 2.084 2.084 0 0 0-.431-.425Z" fill="#FFCC9E"/><path d="M55.754 48.804c.295-.231.59-.463.851-.86 31.561-29.083 62.557-5.212 67.719-.976 1.224.944.43 6.238-1.06 4.836-12.782-12.07-35.97-23.871-67.51-3Z" fill="#FFF"/><path d="M69.223 60.053c1.509 4.819 6.255 5.378 11.912 3.698 5.656-1.68 9.788-4.927 8.28-9.745-1.51-4.819-7.189-7.409-12.68-5.763-5.657 1.68-9.02 6.991-7.512 11.81Z" fill="#F7FFFF"/><path d="M60.52 64.416c1.456 1.238 3.527.469 4.867-1.347 1.34-1.815 1.428-3.885-.193-5.09-1.456-1.238-3.89-.565-5.1 1.052-1.34 1.816-1.195 4.18.426 5.385Z" fill="#FFF"/><path d="M1.22 14.062C-1.3 9.707.212 4.013 4.58 1.334 9.114-1.346 14.825.162 17.344 4.516c2.52 4.354 1.008 10.048-3.36 12.728-4.534 2.68-10.246 1.172-12.765-3.182Z" transform="rotate(-11.659 623.037 -494.259)" opacity=".5" fill="url(#g)"/><path d="M1.22 14.062C-1.3 9.707.212 4.013 4.58 1.334 9.114-1.346 14.825.162 17.344 4.516c2.52 4.354 1.008 10.048-3.36 12.728-4.534 2.68-10.246 1.172-12.765-3.182Z" transform="rotate(-11.659 623.037 -494.258)" fill="url(#g)"/><path d="M116.639 129.421c-3.546-3.885-3.25-9.931.815-13.506 3.9-3.54 9.962-3.253 13.508.633 3.546 3.885 3.25 9.931-.815 13.506-4.098 3.41-10.127 3.286-13.508-.633Zm.261-.396c3.314 3.591 9.047 3.947 12.817.605 3.77-3.343 4.133-9.061.786-12.816-3.314-3.592-9.047-3.948-12.817-.605-3.736 3.507-4.1 9.225-.786 12.816Z" fill="#217588"/><path d="M113.851 131.71c-4.871-5.322-4.323-13.472 1.02-18.336 5.342-4.865 13.644-4.526 18.351.83 4.872 5.322 4.324 13.472-1.019 18.336-5.178 4.83-13.48 4.492-18.352-.83Z" opacity=".2" fill="#E3FBED"/><path d="M128.23 127.944c2.817-2.552 3.086-6.845.601-9.588-2.485-2.744-6.784-2.9-9.601-.347-2.817 2.552-3.087 6.845-.602 9.588 2.485 2.744 6.784 2.9 9.602.347Z" fill="#C6EB8F"/><g fill="#E3FBED"><path d="M126.65 126.204c1.854-1.68 2.048-4.489.433-6.272-1.616-1.783-4.43-1.866-6.284-.185-1.855 1.68-2.05 4.489-.434 6.272 1.615 1.783 4.429 1.866 6.284.185Z"/></g><g><path d="M1.273 12.018C-1.078 7.998-.07 3.142 3.457.965c3.527-2.177 8.399-.503 10.75 3.35 2.352 4.018 1.344 8.875-2.183 11.052-3.528 2.177-8.4.67-10.75-3.35Z" transform="rotate(-11.659 747.537 -308.042)" opacity=".5" fill="url(#h)"/><path d="M1.273 12.018C-1.078 7.998-.07 3.142 3.457.965c3.527-2.177 8.399-.503 10.75 3.35 2.352 4.018 1.344 8.875-2.183 11.052-3.528 2.177-8.4.67-10.75-3.35Z" transform="rotate(-11.659 747.537 -308.041)" fill="url(#h)"/><path d="M81.216 156.422c-3.115-3.461-3.144-8.585.036-11.464 3.179-2.88 8.254-2.388 11.404 1.238 3.115 3.46 3.143 8.585-.036 11.464-3.049 2.68-8.289 2.223-11.404-1.238Zm.295-.232c3.082 3.297 7.828 3.857 10.877 1.176 3.048-2.681 2.89-7.607-.028-10.939-3.081-3.297-7.827-3.856-10.876-1.175-3.049 2.68-2.89 7.607.027 10.938Z" fill="#217588"/><g opacity=".2" fill="#E3FBED"><path d="M79.183 158.203c-4.407-4.733-4.313-11.763-.152-15.7 4.326-3.97 11.347-3.196 15.59 1.571 4.406 4.734 4.313 11.764.152 15.7-4.327 3.972-11.313 3.361-15.59-1.57Z"/></g></g><g><path d="M14.207 4.347C11.856.327 6.984-1.18 3.457.997-.071 3.175-1.078 8.031 1.273 12.051c2.352 4.019 7.055 5.526 10.75 3.349 3.528-2.177 4.536-7.034 2.184-11.053Z" transform="rotate(-11.659 475.608 -679.275)" opacity=".5" fill="url(#i)"/><path d="M14.207 4.347C11.856.327 6.984-1.18 3.457.997-.071 3.175-1.078 8.031 1.273 12.051c2.352 4.019 7.055 5.526 10.75 3.349 3.528-2.177 4.536-7.034 2.184-11.053Z" transform="rotate(-11.659 475.608 -679.275)" fill="url(#i)"/><path d="M150.597 93.672c-3.115-3.461-3.143-8.585.036-11.464 3.18-2.88 8.255-2.388 11.404 1.238 3.115 3.46 3.143 8.585-.036 11.464-3.015 2.845-8.288 2.223-11.404-1.238Zm.295-.232c3.082 3.297 7.828 3.857 10.877 1.176 3.049-2.681 2.89-7.607-.027-10.939-3.082-3.297-7.828-3.856-10.877-1.175-3.049 2.68-3.054 7.64.027 10.938Z" fill="#217588"/><path d="M164.035 81.497c-4.407-4.734-11.263-5.542-15.589-1.571-4.326 3.97-4.254 10.967-.012 15.734 4.407 4.734 11.263 5.542 15.59 1.572 4.49-4.005 4.418-11.001.011-15.735Z" opacity=".2" fill="#E3FBED"/><path d="M160.31 93.082c2.198-1.992 2.167-5.608-.07-8.077-2.236-2.469-5.832-2.855-8.03-.863-2.2 1.992-2.169 5.608.068 8.077 2.237 2.469 5.833 2.856 8.032.863Z" fill="#C6EB8F"/><g fill="#E3FBED"><path d="M158.963 91.584c1.443-1.307 1.404-3.701-.087-5.348-1.491-1.646-3.87-1.92-5.313-.613-1.443 1.307-1.404 3.7.087 5.347 1.491 1.646 3.87 1.921 5.313.614Z"/></g></g><g><path d="M10.5 3.102C8.15.087 4.455-.918 1.935.925-.586 2.767-.586 6.786 1.598 9.8c2.352 3.014 6.047 4.019 8.567 2.177 2.352-2.01 2.52-5.862.336-8.876Z" transform="rotate(-11.659 347.934 -804.288)" fill="url(#j)" opacity=".5"/><path d="M10.5 3.102C8.15.087 4.455-.918 1.935.925-.586 2.767-.586 6.786 1.598 9.8c2.352 3.014 6.047 4.019 8.567 2.177 2.352-2.01 2.52-5.862.336-8.876Z" transform="rotate(-11.659 347.934 -804.286)" fill="url(#j)"/><path d="M173.089 63.024c-2.912-2.477-3.594-6.611-1.499-8.925.131-.198.296-.232.426-.43 2.163-1.985 5.986-1.748 8.733.763 1.457 1.239 2.289 2.777 2.66 4.581.34 1.64-.179 3.287-1.161 4.344-.13.198-.295.232-.426.43-2.327 2.02-6.02 1.584-8.733-.763Zm-1.3-8.795c-1.931 2.28-1.317 6.086 1.397 8.433 2.714 2.347 6.207 2.652 8.206.7.13-.197.295-.231.26-.395.983-1.058 1.37-2.506 1.032-4.146-.338-1.64-1.17-3.178-2.428-4.287-2.516-2.217-6.207-2.652-8.206-.7.034.163-.097.361-.261.395Z" fill="#217588"/><path d="M181.993 52.979c-3.971-3.455-9.507-3.681-12.29-.542-2.782 3.139-1.994 8.62 2.012 12.239 3.971 3.455 9.507 3.681 12.29.542 2.912-3.337 1.96-8.784-2.012-12.239Z" opacity=".2" fill="#E3FBED"/><path d="M180.56 62.03c1.473-1.669.978-4.51-1.105-6.348-2.082-1.837-4.963-1.975-6.435-.307-1.472 1.668-.977 4.51 1.105 6.348 2.083 1.837 4.964 1.974 6.436.306Z" fill="#C6EB8F"/><g fill="#E3FBED"><path d="M179.298 60.931c.981-1.112.652-3.006-.736-4.231-1.388-1.226-3.309-1.318-4.29-.206-.982 1.112-.652 3.007.736 4.232s3.309 1.317 4.29.205Z"/></g></g><g><path d="M7.377 1.92C5.529-.09 2.673-.592 1.162.748c-1.68 1.507-1.512 4.354.336 6.364C3.345 9.122 6.2 9.624 7.88 8.284c1.511-1.34 1.343-4.187-.504-6.364Z" transform="rotate(-11.659 236.571 -872.387)" fill="url(#k)" opacity=".5"/><path d="M7.377 1.92C5.529-.09 2.673-.592 1.162.748c-1.68 1.507-1.512 4.354.336 6.364C3.345 9.122 6.2 9.624 7.88 8.284c1.511-1.34 1.343-4.187-.504-6.364Z" transform="rotate(-11.659 236.571 -872.387)" fill="url(#l)"/><path d="M184.11 36.637c-2.25-1.759-2.99-4.513-1.649-6.329.131-.198.262-.396.426-.43 1.442-1.323 4.045-1.176 6.063.288 1.025.815 1.92 1.827 2.191 3.14.237 1.147.145 2.363-.542 3.19-.131.197-.262.395-.426.429-1.442 1.324-4.045 1.177-6.063-.288Zm-1.615-6.165c-1.21 1.618-.47 4.372 1.581 6 2.018 1.466 4.422 1.482 5.898.323.131-.198.296-.232.426-.43.687-.826.813-1.878.412-2.992-.237-1.148-1.132-2.16-2.157-2.975-2.018-1.464-4.423-1.481-5.898-.322.033.164-.131.198-.262.396Z" fill="#217588"/><path d="M192.185 37.543c1.818-2.459.757-6.327-2.37-8.64-3.126-2.312-7.135-2.194-8.954.265-1.818 2.459-.758 6.327 2.369 8.64 3.127 2.312 7.136 2.194 8.955-.265Z" opacity=".2" fill="#E3FBED"/><path d="M189.482 35.566c.936-1.266.368-3.275-1.27-4.486-1.638-1.211-3.725-1.166-4.662.101-.936 1.267-.368 3.275 1.27 4.486 1.638 1.211 3.725 1.166 4.662-.1Z" fill="#C6EB8F"/><g fill="#E3FBED"><path d="M188.399 34.765c.606-.82.253-2.108-.79-2.88-1.041-.77-2.378-.731-2.984.088-.606.82-.253 2.109.79 2.88 1.041.77 2.377.732 2.984-.088Z"/></g></g></g></g><path d="m9.829 3.133 31.372 10.221 2.292-4.212 6.467 5.65-.56-11.813 12.019 13.559L62.183 0l7.537 5.855L89.016 0l-9.941 16.538 28.919-10.683-13.556 23.883H0l20.167-8.937-8.759-4.468 13.852-.462z" transform="rotate(1.816 -2852.285 2202.015)" fill="url(#m)" fill-rule="nonzero"/></g></svg>