<svg width="800" height="120" xmlns="http://www.w3.org/2000/svg"><defs><linearGradient x1="100%" y1="-2.07%" x2="100%" y2="98.605%" id="a"><stop stop-color="#D9AB75" offset="0%"/><stop stop-color="#E8B689" offset="100%"/></linearGradient></defs><g fill-rule="nonzero" fill="none"><path d="M1157 124.895c0 65.332-259.003 118.293-578.5 118.293S0 190.227 0 124.895c0-35.971 78.52-68.192 202.423-89.888 37.805-6.62 73.892-12.26 119.208-16.728C411.78 6.602 488.593 0 578.5 0c136.229 0 256.947 21.31 360.305 32.342C1075.51 46.932 1157 87.42 1157 124.895Z" transform="translate(-169 .26)" fill="url(#a)"/><g fill="#FFF" fill-opacity=".1"><path d="M881.547 257.725c-4.649 96.71-235.124 164.213-514.778 150.77-279.655-13.443-502.59-102.741-497.942-199.452 4.65-96.71 235.122-164.213 514.777-150.77 279.654 13.444 502.592 102.741 497.943 199.452Z"/><path d="M927.535 212.854c-2.907 96.921-227.22 168.833-501.018 160.621-273.797-8.212-493.397-93.439-490.49-190.36 2.907-96.922 227.22-168.835 501.018-160.623 273.797 8.212 493.397 93.44 490.49 190.362Z"/><path d="M950.357 228.784c3.471 90.234-197.271 171.213-448.37 180.872-251.1 9.659-457.47-55.66-460.942-145.894-3.47-90.235 197.272-171.214 448.372-180.873 251.1-9.659 457.47 55.66 460.94 145.895Z"/></g><g opacity=".3" style="mix-blend-mode:multiply"><path d="M302.442 121.832c-2.736-.103-5.438-.743-7.668-1.939-5.354-2.881-5.903-7.886-1.224-11.18 1.697-1.196 3.859-2.005 6.173-2.407-3.851-.15-7.77.768-10.506 2.696-4.678 3.293-4.13 8.299 1.225 11.18 3.412 1.83 7.947 2.36 12 1.65Z" fill="#AB806C"/><path d="M294.774 119.888c2.22 1.196 4.932 1.835 7.668 1.938 2.314-.402 4.467-1.212 6.173-2.407 4.679-3.294 4.13-8.3-1.224-11.18-2.221-1.197-4.932-1.836-7.668-1.939-2.314.402-4.476 1.211-6.174 2.407-4.678 3.294-4.13 8.3 1.225 11.18Z" fill="#CFA075"/><path d="M92.716 75.908c-2.73-.12-5.426-.86-7.65-2.243-5.342-3.335-5.89-9.128-1.222-12.94 1.694-1.385 3.85-2.321 6.16-2.787-3.843-.173-7.752.89-10.482 3.12-4.668 3.813-4.12 9.606 1.222 12.94 3.404 2.119 7.928 2.733 11.972 1.91Z" fill="#AB806C"/><path d="M85.066 73.666c2.216 1.385 4.92 2.124 7.65 2.244 2.309-.466 4.457-1.402 6.16-2.786 4.667-3.813 4.12-9.606-1.223-12.94-2.215-1.385-4.92-2.125-7.65-2.244-2.309.465-4.465 1.402-6.159 2.786-4.668 3.812-4.12 9.606 1.222 12.94Z" fill="#CFA075"/><path d="M230.92 78.227c-3.157-.112-6.275-.804-8.848-2.1-6.178-3.121-6.811-8.544-1.413-12.112 1.959-1.296 4.453-2.172 7.123-2.608-4.443-.162-8.964.832-12.122 2.92-5.398 3.569-4.764 8.991 1.413 12.113 3.937 1.982 9.17 2.557 13.847 1.787Z" fill="#AB806C"/><path d="M222.072 76.13c2.563 1.296 5.691 1.988 8.848 2.1 2.67-.436 5.155-1.313 7.123-2.608 5.399-3.569 4.765-8.99-1.413-12.112-2.562-1.296-5.69-1.988-8.847-2.1-2.67.436-5.165 1.312-7.124 2.608-5.398 3.568-4.764 8.99 1.413 12.112Z" fill="#CFA075"/><path d="M403.411 57.891c-2.736-.069-5.438-.495-7.668-1.292-5.354-1.921-5.903-5.258-1.224-7.454 1.697-.797 3.859-1.336 6.173-1.605-3.851-.1-7.77.513-10.506 1.798-4.678 2.196-4.13 5.532 1.225 7.453 3.412 1.22 7.947 1.574 12 1.1Z" fill="#AB806C"/><path d="M395.743 56.598c2.22.798 4.932 1.224 7.668 1.293 2.314-.268 4.467-.808 6.173-1.605 4.679-2.196 4.13-5.533-1.224-7.454-2.221-.797-4.932-1.223-7.668-1.292-2.314.268-4.476.808-6.174 1.605-4.678 2.196-4.13 5.532 1.225 7.453Z" fill="#CFA075"/><path d="M484.939 40.11c-1.684-.05-3.347-.37-4.719-.968-3.295-1.441-3.633-3.944-.753-5.59 1.044-.598 2.375-1.003 3.798-1.204-2.37-.075-4.78.384-6.464 1.348-2.88 1.647-2.542 4.15.753 5.59 2.1.915 4.89 1.18 7.385.825Z" fill="#AB806C"/><path d="M480.22 39.144c1.367.598 3.035.917 4.719.969 1.424-.201 2.75-.606 3.799-1.204 2.879-1.647 2.541-4.15-.754-5.59-1.367-.598-3.035-.917-4.719-.969-1.423.201-2.754.606-3.798 1.204-2.88 1.647-2.542 4.15.753 5.59Z" fill="#CFA075"/><g><path d="M304.283 47.331c-2.175-.069-4.323-.495-6.095-1.292-4.256-1.921-4.692-5.258-.973-7.454 1.349-.797 3.067-1.336 4.907-1.605-3.061-.1-6.176.513-8.35 1.798-3.72 2.196-3.283 5.532.973 7.453 2.711 1.22 6.316 1.574 9.538 1.1Z" fill="#AB806C"/><path d="M298.189 46.038c1.765.798 3.92 1.224 6.095 1.293 1.839-.269 3.55-.808 4.907-1.605 3.719-2.196 3.282-5.533-.974-7.454-1.765-.797-3.92-1.223-6.095-1.292-1.84.268-3.558.808-4.907 1.605-3.719 2.196-3.282 5.532.974 7.453Z" fill="#CFA075"/></g><g><path d="M725.281 73.081c-2.666-.069-5.299-.495-7.471-1.292-5.217-1.921-5.752-5.258-1.193-7.454 1.653-.797 3.76-1.336 6.014-1.605-3.752-.1-7.57.513-10.236 1.798-4.558 2.196-4.023 5.532 1.193 7.453 3.325 1.22 7.743 1.574 11.693 1.1Z" fill="#AB806C"/><path d="M717.81 71.788c2.164.798 4.805 1.224 7.471 1.293 2.255-.269 4.353-.808 6.015-1.605 4.559-2.196 4.024-5.533-1.193-7.454-2.164-.797-4.805-1.223-7.471-1.292-2.255.268-4.361.808-6.015 1.605-4.559 2.196-4.024 5.532 1.193 7.453Z" fill="#CFA075"/></g><g><path d="M466.132 103.964c-4.592-.116-9.128-.835-12.87-2.18-8.987-3.242-9.909-8.873-2.056-12.578 2.85-1.346 6.478-2.256 10.362-2.708-6.464-.168-13.04.864-17.634 3.033-7.852 3.705-6.931 9.336 2.056 12.578 5.726 2.058 13.338 2.656 20.142 1.855Z" fill="#AB806C"/><path d="M452.01 102.081c3.68 1.373 8.17 2.107 12.702 2.225 3.833-.461 7.4-1.39 10.226-2.763 7.75-3.782 6.84-9.53-2.028-12.838-3.68-1.373-8.17-2.107-12.702-2.225-3.833.462-7.414 1.39-10.226 2.764-7.75 3.782-6.84 9.529 2.029 12.837Z" fill="#D6B48D"/></g><g><path d="M630.146 133.55c-4.63-.159-9.204-1.144-12.977-2.988-9.06-4.442-9.99-12.159-2.072-17.237 2.873-1.843 6.531-3.09 10.447-3.71-6.517-.231-13.148 1.183-17.779 4.155-7.917 5.078-6.988 12.795 2.073 17.237 5.773 2.821 13.448 3.64 20.308 2.543Z" fill="#AB806C"/><path d="M617.17 130.558c3.758 1.843 8.346 2.829 12.976 2.988 3.916-.62 7.56-1.868 10.447-3.712 7.918-5.078 6.989-12.794-2.072-17.236-3.759-1.844-8.346-2.83-12.977-2.988-3.916.62-7.574 1.867-10.447 3.711-7.918 5.078-6.989 12.794 2.072 17.237Z" fill="#CFA075"/></g></g></g></svg>