<svg width="800" height="497" xmlns="http://www.w3.org/2000/svg"><g fill="#F4F4F4" fill-rule="nonzero" opacity=".5"><path d="M183.46 120.6c-3.805 0-4.756 1.424-4.756 4.749 0-3.325-1.268-4.75-4.755-4.75 3.487 0 4.755-1.424 4.755-4.749 0 3.325.951 4.75 4.755 4.75ZM264.93 30.05c-3.804 0-4.755 1.424-4.755 4.749 0-3.325-1.268-4.75-4.755-4.75 3.487 0 4.755-1.424 4.755-4.749 0 3.325 1.11 4.75 4.755 4.75ZM765.96 373.11c-3.803 0-4.754 1.424-4.754 4.749 0-3.325-1.268-4.75-4.756-4.75 3.488 0 4.756-1.424 4.756-4.749 0 3.325.95 4.75 4.755 4.75ZM346.718 9.63c-3.804 0-4.755 1.424-4.755 4.749 0-3.325-1.268-4.75-4.755-4.75 3.487 0 4.755-1.424 4.755-4.749 0 3.325.951 4.75 4.755 4.75ZM392.526 406.35c-4.28 0-4.755.633-4.755 4.749 0-4.116-.634-4.75-4.755-4.75 4.121 0 4.755-.791 4.755-4.749 0 4.116.476 4.75 4.755 4.75ZM257.164 308.52c-4.28 0-4.755.633-4.755 4.749 0-4.116-.634-4.75-4.755-4.75 4.121 0 4.755-.791 4.755-4.749 0 3.958.476 4.75 4.755 4.75ZM264.93 99.55c-4.28 0-4.755.633-4.755 4.749 0-4.116-.634-4.75-4.755-4.75 4.121 0 4.755-.791 4.755-4.749 0 4.116.634 4.75 4.755 4.75ZM288.39 158.75c-4.28 0-4.756.633-4.756 4.749 0-4.116-.634-4.75-4.755-4.75 4.121 0 4.755-.791 4.755-4.749 0 3.958.476 4.75 4.755 4.75ZM323.26 182.98c-4.28 0-4.755.633-4.755 4.749 0-4.116-.634-4.75-4.755-4.75 4.121 0 4.755-.791 4.755-4.749 0 4.116.476 4.75 4.755 4.75ZM98.818-3.67c-5.072 0-5.706.632-5.706 5.698 0-5.066-.792-5.699-5.706-5.699 4.914 0 5.706-.95 5.706-5.699 0 4.75.634 5.7 5.706 5.7ZM587.961 154.01c-5.072 0-5.706.632-5.706 5.698 0-5.066-.793-5.699-5.706-5.699 4.913 0 5.706-.95 5.706-5.699 0 4.75.634 5.7 5.706 5.7ZM495.712 213.21c-5.072 0-5.706.632-5.706 5.698 0-5.066-.792-5.699-5.706-5.699 4.914 0 5.706-.95 5.706-5.699 0 4.908.634 5.7 5.706 5.7ZM501.418 58.39c-5.072 0-5.706.632-5.706 5.698 0-5.066-.792-5.699-5.706-5.699 4.914 0 5.706-.95 5.706-5.699 0 4.75.634 5.7 5.706 5.7ZM283.634 124.558c-3.487 0-3.962.475-3.962 3.958 0-3.483-.476-3.958-3.963-3.958 3.487 0 3.963-.633 3.963-3.958 0 3.325.475 3.958 3.962 3.958ZM451.49 279.708c-3.488 0-3.963.475-3.963 3.958 0-3.483-.476-3.958-3.963-3.958 3.487 0 3.963-.633 3.963-3.958 0 3.325.475 3.958 3.962 3.958ZM676.882 124.558c-3.487 0-3.963.475-3.963 3.958 0-3.483-.475-3.958-3.962-3.958 3.487 0 3.962-.633 3.962-3.958.159 3.325.476 3.958 3.963 3.958ZM435.163.288c-3.487 0-3.962.475-3.962 3.958 0-3.483-.476-3.958-3.963-3.958 3.487 0 3.963-.633 3.963-3.958 0 3.325.475 3.958 3.962 3.958ZM260.175 387.358c-3.487 0-3.962.475-3.962 3.958 0-3.483-.476-3.958-3.963-3.958 3.487 0 3.963-.633 3.963-3.958.158 3.325.475 3.958 3.962 3.958ZM82.492 248.828c-3.487 0-3.962.475-3.962 3.958 0-3.483-.476-3.958-3.963-3.958 3.487 0 3.963-.633 3.963-3.958 0 3.325.475 3.958 3.962 3.958ZM.705 229.046c-2.853 0-3.17.317-3.17 3.166 0-2.69-.475-3.166-3.17-3.166 2.695 0 3.17-.475 3.17-3.166 0 2.691.476 3.166 3.17 3.166ZM143.833 327.986c-2.853 0-3.17.317-3.17 3.166 0-2.69-.475-3.166-3.17-3.166 2.695 0 3.17-.475 3.17-3.166.159 2.691.476 3.166 3.17 3.166ZM170.145 176.796c-2.853 0-3.17.317-3.17 3.166 0-2.69-.475-3.166-3.17-3.166 2.695 0 3.17-.475 3.17-3.166 0 2.691.317 3.166 3.17 3.166ZM377.943 341.446c-2.853 0-3.17.317-3.17 3.166 0-2.69-.475-3.166-3.17-3.166 2.695 0 3.17-.475 3.17-3.166 0 2.691.317 3.166 3.17 3.166ZM390.782 179.966c-2.853 0-3.17.317-3.17 3.166 0-2.69-.475-3.166-3.17-3.166 2.695 0 3.17-.475 3.17-3.166.159 2.691.476 3.166 3.17 3.166ZM579.085 210.206c-2.853 0-3.17.317-3.17 3.166 0-2.69-.476-3.166-3.17-3.166 2.694 0 3.17-.475 3.17-3.166 0 2.691.475 3.166 3.17 3.166ZM669.115 338.436c-2.853 0-3.17.317-3.17 3.166 0-2.69-.476-3.166-3.17-3.166 2.694 0 3.17-.475 3.17-3.166 0 2.533.317 3.166 3.17 3.166ZM740.759 179.966c-2.853 0-3.17.317-3.17 3.166 0-2.69-.476-3.166-3.17-3.166 2.694 0 3.17-.475 3.17-3.166 0 2.691.317 3.166 3.17 3.166ZM585.425 36.536c-2.853 0-3.17.317-3.17 3.166 0-2.69-.476-3.166-3.17-3.166 2.694 0 3.17-.475 3.17-3.166 0 2.691.317 3.166 3.17 3.166ZM345.133 51.896c-2.853 0-3.17.317-3.17 3.166 0-2.69-.475-3.166-3.17-3.166 2.695 0 3.17-.475 3.17-3.166 0 2.691.317 3.166 3.17 3.166ZM150.174 78.016c-2.853 0-3.17.317-3.17 3.166 0-2.69-.475-3.166-3.17-3.166 2.695 0 3.17-.475 3.17-3.166 0 2.691.317 3.166 3.17 3.166ZM56.656 36.85c-4.438 0-5.547 1.742-5.547 5.542 0-3.958-1.427-5.541-5.548-5.541 4.121 0 5.548-1.583 5.548-5.541-.159 3.958 1.11 5.54 5.547 5.54ZM78.054 99.543c-2.694 0-3.487.95-3.487 3.483 0-2.375-.95-3.483-3.487-3.483 2.536 0 3.487-.95 3.487-3.483 0 2.533.793 3.483 3.487 3.483ZM60.143 313.263c-2.694 0-3.487.95-3.487 3.483 0-2.375-.95-3.483-3.487-3.483 2.536 0 3.487-.95 3.487-3.483.159 2.375.793 3.483 3.487 3.483ZM610.944 85.143c-2.694 0-3.487.95-3.487 3.483 0-2.375-.951-3.483-3.487-3.483 2.536 0 3.487-.95 3.487-3.483 0 2.533.793 3.483 3.487 3.483ZM662.775 229.043c-2.695 0-3.487.95-3.487 3.483 0-2.375-.951-3.483-3.487-3.483 2.536 0 3.487-.95 3.487-3.483.158 2.533.792 3.483 3.487 3.483ZM695.11 252.793c-2.695 0-3.487.95-3.487 3.483 0-2.375-.951-3.483-3.487-3.483 2.536 0 3.487-.95 3.487-3.483.158 2.533.792 3.483 3.487 3.483ZM112.925 173.633c-2.694 0-3.487.95-3.487 3.483 0-2.375-.95-3.483-3.487-3.483 2.536 0 3.487-.95 3.487-3.483 0 2.533.793 3.483 3.487 3.483ZM391.1 88.623c-2.695 0-3.488.95-3.488 3.483 0-2.375-.951-3.483-3.487-3.483 2.536 0 3.487-.95 3.487-3.483.159 2.375.793 3.483 3.487 3.483ZM553.09 300.283c-2.694 0-3.487.95-3.487 3.483 0-2.375-.95-3.483-3.487-3.483 2.536 0 3.487-.95 3.487-3.483.159 2.533.951 3.483 3.487 3.483ZM408.852 267.043c-2.694 0-3.487.95-3.487 3.483 0-2.375-.95-3.483-3.487-3.483 2.536 0 3.487-.95 3.487-3.483 0 2.533.793 3.483 3.487 3.483ZM387.771 54.903c-2.694 0-3.487.95-3.487 3.483 0-2.375-.951-3.483-3.487-3.483 2.536 0 3.487-.95 3.487-3.483 0 2.533.793 3.483 3.487 3.483ZM614.273 19.123c-2.695 0-3.487.95-3.487 3.483 0-2.375-.951-3.483-3.487-3.483 2.536 0 3.487-.95 3.487-3.483.158 2.375.792 3.483 3.487 3.483ZM666.262 33.533c-2.695 0-3.487.95-3.487 3.483 0-2.375-.951-3.483-3.487-3.483 2.536 0 3.487-.95 3.487-3.483 0 2.375.792 3.483 3.487 3.483ZM710.484 78.013c-2.694 0-3.487.95-3.487 3.483 0-2.375-.95-3.483-3.487-3.483 2.536 0 3.487-.95 3.487-3.483 0 2.533.793 3.483 3.487 3.483ZM756.45 66.773c-2.694 0-3.487.95-3.487 3.483 0-2.375-.95-3.483-3.487-3.483 2.536 0 3.487-.95 3.487-3.483 0 2.375.793 3.483 3.487 3.483ZM756.45 15.643c-2.694 0-3.487.95-3.487 3.483 0-2.375-.95-3.483-3.487-3.483 2.536 0 3.487-.95 3.487-3.483 0 2.533.793 3.483 3.487 3.483ZM188.214 14.37c-3.011 0-4.755 2.057-4.755 4.749 0-2.692-1.743-4.908-4.755-4.75 3.012-.158 4.755-2.216 4.755-4.749 0 2.533 1.585 4.75 4.755 4.75ZM490.006 110.94c-3.011 0-4.755 2.057-4.755 4.749 0-2.692-1.743-4.908-4.755-4.75 3.012-.158 4.755-2.216 4.755-4.749-.158 2.533 1.585 4.75 4.755 4.75ZM803.367 262.29c-3.011 0-4.755 2.057-4.755 4.749 0-2.692-1.743-4.908-4.755-4.75 3.012-.158 4.755-2.216 4.755-4.749 0 2.533 1.744 4.75 4.755 4.75ZM256.371 244.08c-3.011 0-4.755 2.057-4.755 4.749 0-2.692-1.743-4.908-4.755-4.75 3.012-.158 4.755-2.216 4.755-4.749-.158 2.533 1.585 4.75 4.755 4.75ZM61.57 392.1c-3.011 0-4.755 2.057-4.755 4.749 0-2.692-1.743-4.908-4.755-4.75 3.012-.158 4.755-2.216 4.755-4.749 0 2.533 1.585 4.75 4.755 4.75ZM29.077 149.26c-3.011 0-4.755 2.057-4.755 4.749 0-2.692-1.743-4.908-4.755-4.75 3.012-.158 4.755-2.216 4.755-4.749 0 2.533 1.585 4.75 4.755 4.75ZM567.356 401.6c-3.012 0-4.756 2.057-4.756 4.749 0-2.692-1.743-4.908-4.755-4.75 3.012-.158 4.755-2.216 4.755-4.749 0 2.533 1.744 4.75 4.756 4.75ZM1.34 34.801c-2.378 0-3.646 1.583-3.646 3.641 0-2.058-1.427-3.8-3.646-3.64 2.219-.16 3.646-1.742 3.646-3.642-.159 1.9 1.268 3.641 3.645 3.641ZM153.82 256.271c-2.378 0-3.646 1.583-3.646 3.641 0-2.058-1.427-3.8-3.646-3.64 2.22-.16 3.646-1.742 3.646-3.642 0 1.9 1.268 3.641 3.645 3.641ZM475.74 368.361c-2.377 0-3.645 1.583-3.645 3.641 0-2.058-1.427-3.8-3.646-3.64 2.22-.16 3.646-1.742 3.646-3.642 0 2.058 1.268 3.641 3.645 3.641ZM447.368 154.001c-2.377 0-3.645 1.583-3.645 3.641 0-2.058-1.427-3.8-3.646-3.64 2.22-.16 3.646-1.742 3.646-3.642 0 1.9 1.268 3.641 3.645 3.641ZM224.67 191.521c-2.377 0-3.645 1.583-3.645 3.641 0-2.058-1.427-3.8-3.646-3.64 2.22-.16 3.646-1.742 3.646-3.642 0 1.9 1.268 3.641 3.645 3.641ZM109.28 55.056c-2.06 0-3.17 1.425-3.17 3.166 0-1.9-1.268-3.324-3.17-3.166 2.06-.158 3.17-1.425 3.17-3.166 0 1.583 1.11 3.166 3.17 3.166ZM170.304 401.606c-2.06 0-3.17 1.425-3.17 3.166 0-1.9-1.268-3.324-3.17-3.166 2.06-.158 3.17-1.425 3.17-3.166-.158 1.741.951 3.166 3.17 3.166ZM7.837 456.376c-2.06 0-3.17 1.425-3.17 3.166 0-1.9-1.268-3.324-3.17-3.166 2.06-.158 3.17-1.425 3.17-3.166-.158 1.741.951 3.166 3.17 3.166ZM316.92 453.216c-2.06 0-3.17 1.425-3.17 3.166 0-1.9-1.268-3.324-3.17-3.166 2.06-.158 3.17-1.425 3.17-3.166 0 1.583 1.11 3.166 3.17 3.166ZM521.231 476.326c-2.06 0-3.17 1.425-3.17 3.166 0-1.9-1.268-3.324-3.17-3.166 2.06-.158 3.17-1.425 3.17-3.166 0 1.741 1.11 3.166 3.17 3.166ZM676.248 398.436c-2.06 0-3.17 1.425-3.17 3.166 0-1.9-1.268-3.324-3.17-3.166 2.06-.158 3.17-1.425 3.17-3.166 0 1.583 1.11 3.166 3.17 3.166ZM680.21 170.306c-2.06 0-3.17 1.425-3.17 3.166 0-1.9-1.268-3.324-3.17-3.166 2.06-.158 3.17-1.425 3.17-3.166-.158 1.583 1.11 3.166 3.17 3.166ZM329.758 279.706c-2.06 0-3.17 1.425-3.17 3.166 0-1.9-1.268-3.324-3.17-3.166 2.06-.158 3.17-1.425 3.17-3.166-.158 1.741.951 3.166 3.17 3.166ZM74.514 203.062c-6.498 0-10.144 4.274-10.144 10.132 0-5.858-3.804-10.449-10.144-10.132 6.34-.317 10.144-4.591 10.144-10.132 0 5.54 3.646 10.132 10.144 10.132ZM524.56 144.506c-2.061 0-3.17 1.425-3.17 3.166 0-1.9-1.269-3.324-3.171-3.166 2.06-.158 3.17-1.425 3.17-3.166-.158 1.741 1.11 3.166 3.17 3.166ZM626.953 283.656c-2.06 0-3.17 1.425-3.17 3.166 0-1.9-1.268-3.324-3.17-3.166 2.06-.158 3.17-1.425 3.17-3.166 0 1.741 1.11 3.166 3.17 3.166ZM321.675 368.356c-2.06 0-3.17 1.425-3.17 3.166 0-1.9-1.268-3.324-3.17-3.166 2.06-.158 3.17-1.425 3.17-3.166 0 1.741 1.11 3.166 3.17 3.166ZM153.344 417.596c-2.06 0-3.17 1.425-3.17 3.166 0-1.9-1.268-3.324-3.17-3.166 2.06-.158 3.17-1.425 3.17-3.166 0 1.741 1.11 3.166 3.17 3.166ZM641.377 453.216c-2.06 0-3.17 1.425-3.17 3.166 0-1.9-1.268-3.324-3.17-3.166 2.06-.158 3.17-1.425 3.17-3.166-.159 1.583.95 3.166 3.17 3.166ZM764.376 469.836c-2.06 0-3.17 1.425-3.17 3.166 0-1.9-1.268-3.324-3.17-3.166 2.06-.158 3.17-1.425 3.17-3.166 0 1.741 1.11 3.166 3.17 3.166ZM213.575 493.896c-2.06 0-3.17 1.425-3.17 3.166 0-1.9-1.268-3.324-3.17-3.166 2.06-.158 3.17-1.425 3.17-3.166 0 1.741 1.11 3.166 3.17 3.166ZM788.627 120.596c-2.06 0-3.17 1.425-3.17 3.166 0-1.9-1.268-3.324-3.17-3.166 2.06-.158 3.17-1.425 3.17-3.166 0 1.741 1.11 3.166 3.17 3.166Z"/></g></svg>